<svg xmlns="http://www.w3.org/2000/svg" style="display:block" viewBox="0 0 2976 985" fill-rule="evenodd" xmlns:c2pa="http://c2pa.org/manifest"><metadata><c2pa:manifest>AAAWgmp1bWIAAAAeanVtZGMycGEAEQAQgAAAqgA4m3EDYzJwYQAAABZcanVtYgAAAEdqdW1kYzJtYQARABCAAACqADibcQN1cm46YzJwYTo4MjcyOTI1YS04ZjhhLTQ4ZDEtYjc4YS05ZTcxNTdlNjNhNDkAAAADl2p1bWIAAAApanVtZGMyYXMAEQAQgAAAqgA4m3EDYzJwYS5hc3NlcnRpb25zAAAAALxqdW1iAAAARGp1bWRjYm9yABEAEIAAAKoAOJtxE2MycGEuaW5ncmVkaWVudC52MwAAAAAYYzJzaMCiz3xd1cDjpQcwOdqqQIkAAABwY2JvcqNpZGM6Zm9ybWF0bWltYWdlL3N2Zyt4bWxqaW5zdGFuY2VJRHgseG1wOmlpZDpiYzE3NmQyNS0yZGJhLTRjN2UtOWE0ZC1lZGI1YjEzYTk0MGFscmVsYXRpb25zaGlwaHBhcmVudE9mAAAB4mp1bWIAAABBanVtZGNib3IAEQAQgAAAqgA4m3ETYzJwYS5hY3Rpb25zLnYyAAAAABhjMnNojAVQ/hRN4kPh+SNSIi/FMgAAAZljYm9yomdhY3Rpb25zgqJmYWN0aW9ua2MycGEub3BlbmVkanBhcmFtZXRlcnOha2luZ3JlZGllbnRzgaJjdXJseC1zZWxmI2p1bWJmPWMycGEuYXNzZXJ0aW9ucy9jMnBhLmluZ3JlZGllbnQudjNkaGFzaFggqegfieweE1zI/C6gsmIgg0ZvTLP22+f+yrd+3gEk6LykZmFjdGlvbngdY29tLmFudGhyb3BpYy5jbGF1ZGUucHJvdmlkZWRqcGFyYW1ldGVyc6F4H2NvbS5hbnRocm9waWMub3JpZ2luLWNvbmZpZGVuY2VndW5rbm93bmtkZXNjcmlwdGlvbnhmQ2xhdWRlIHByb3ZpZGVkIHRoaXMgZmlsZSBhdCB0aGUgcmVxdWVzdCBvZiBhIHVzZXIgYW5kIG1heSBoYXZlIGNyZWF0ZWQgb3IgbW9kaWZpZWQgdGhlIGZpbGUgY29udGVudHMubXNvZnR3YXJlQWdlbnShZG5hbWVmQ2xhdWRlcmFsbEFjdGlvbnNJbmNsdWRlZPUAAADIanVtYgAAAEBqdW1kY2JvcgARABCAAACqADibcRNjMnBhLmhhc2guZGF0YQAAAAAYYzJzaDTy6P0BbauncQGZMx4rReAAAACAY2JvcqVjYWxnZnNoYTI1NmNwYWRNAAAAAAAAAAAAAAAAAGRoYXNoWCC+YkHakFeqv9xx1aC8+r0NEGU/C42ZnfMgMjWNkHa4rGRuYW1lbmp1bWJmIG1hbmlmZXN0amV4Y2x1c2lvbnOBomVzdGFydBioZmxlbmd0aBkeBAAAAj5qdW1iAAAAJ2p1bWRjMmNsABEAEIAAAKoAOJtxA2MycGEuY2xhaW0udjIAAAACD2Nib3KlY2FsZ2ZzaGEyNTZpc2lnbmF0dXJleE1zZWxmI2p1bWJmPS9jMnBhL3VybjpjMnBhOjgyNzI5MjVhLThmOGEtNDhkMS1iNzhhLTllNzE1N2U2M2E0OS9jMnBhLnNpZ25hdHVyZWppbnN0YW5jZUlEeCx4bXA6aWlkOjJlZjZlY2FmLWIwOGItNGQxMC1hY2U3LTBiZTBhZGM0NzAwN3JjcmVhdGVkX2Fzc2VydGlvbnODomN1cmx4LXNlbGYjanVtYmY9YzJwYS5hc3NlcnRpb25zL2MycGEuaW5ncmVkaWVudC52M2RoYXNoWCCp6B+J7B4TXMj8LqCyYiCDRm9Ms/bb5/7Kt37eASTovKJjdXJseCpzZWxmI2p1bWJmPWMycGEuYXNzZXJ0aW9ucy9jMnBhLmFjdGlvbnMudjJkaGFzaFgguTGSEgrAURcnJfWyh3z+VSkmYWwAVMxDdbzzZfAliM+iY3VybHgpc2VsZiNqdW1iZj1jMnBhLmFzc2VydGlvbnMvYzJwYS5oYXNoLmRhdGFkaGFzaFggSzy6d7FN6EmHHirhhZHXwTG6kA82zOxKogV2uua417F0Y2xhaW1fZ2VuZXJhdG9yX2luZm+jZG5hbWVvQW50aHJvcGljIEZpbGVzZ3ZlcnNpb25lMS4wLjBrc3BlY1ZlcnNpb25lMi40LjAAABA4anVtYgAAAChqdW1kYzJjcwARABCAAACqADibcQNjMnBhLnNpZ25hdHVyZQAAABAIY2JvctKEWQISogEmGCFZAgowggIGMIIBjaADAgECAhRA5aAK7sI50L64g/oGQgU9Z1UTADAKBggqhkjOPQQDAzBJMRcwFQYDVQQKEw5BbnRocm9waWMsIFBCQzEuMCwGA1UEAxMlQW50aHJvcGljIENvbnRlbnQgQ3JlZGVudGlhbHMgUm9vdCBDQTAeFw0yNjA4MDcxODQzNTZaFw0yODA4MDYxOTQzNTZaMEQxFzAVBgNVBAoTDkFudGhyb3BpYywgUEJDMSkwJwYDVQQDEyBBbnRocm9waWMgQ2xhdWRlIENvbnRlbnQgU2lnbmluZzBZMBMGByqGSM49AgEGCCqGSM49AwEHA0IABJh6CmvLUBgFFNU0vUKlOVtE6djd17L5SuwX0LemFisBM3dkd/3cyjxFA3Qo5S46fX0/ihY0VZ7mfb9KF703t5OjWDBWMA4GA1UdDwEB/wQEAwIHgDAVBgNVHSUEDjAMBgorBgEEAYPoXgIBMAwGA1UdEwEB/wQCMAAwHwYDVR0jBBgwFoAUzlHiBIFOZFsj+OPEz5o+nMHXXMIwCgYIKoZIzj0EAwMDZwAwZAIwMXMdFJ4BetLLVY7ORuE9noqbbAZOZn/aArXyTwFAZfKrPzxF2vPoJNf1+UCdg1XGAjBwX1zd9WGqYkqmL5SFqw1QySjr1zJfpJM9+1rdDwSPLMOPOjKuiXjoU/pUUeG9RwmhY3BhZFkNngAAAAAAAAAAAAAAAAAAAAAAAAAAAAAAAAAAAAAAAAAAAAAAAAAAAAAAAAAAAAAAAAAAAAAAAAAAAAAAAAAAAAAAAAAAAAAAAAAAAAAAAAAAAAAAAAAAAAAAAAAAAAAAAAAAAAAAAAAAAAAAAAAAAAAAAAAAAAAAAAAAAAAAAAAAAAAAAAAAAAAAAAAAAAAAAAAAAAAAAAAAAAAAAAAAAAAAAAAAAAAAAAAAAAAAAAAAAAAAAAAAAAAAAAAAAAAAAAAAAAAAAAAAAAAAAAAAAAAAAAAAAAAAAAAAAAAAAAAAAAAAAAAAAAAAAAAAAAAAAAAAAAAAAAAAAAAAAAAAAAAAAAAAAAAAAAAAAAAAAAAAAAAAAAAAAAAAAAAAAAAAAAAAAAAAAAAAAAAAAAAAAAAAAAAAAAAAAAAAAAAAAAAAAAAAAAAAAAAAAAAAAAAAAAAAAAAAAAAAAAAAAAAAAAAAAAAAAAAAAAAAAAAAAAAAAAAAAAAAAAAAAAAAAAAAAAAAAAAAAAAAAAAAAAAAAAAAAAAAAAAAAAAAAAAAAAAAAAAAAAAAAAAAAAAAAAAAAAAAAAAAAAAAAAAAAAAAAAAAAAAAAAAAAAAAAAAAAAAAAAAAAAAAAAAAAAAAAAAAAAAAAAAAAAAAAAAAAAAAAAAAAAAAAAAAAAAAAAAAAAAAAAAAAAAAAAAAAAAAAAAAAAAAAAAAAAAAAAAAAAAAAAAAAAAAAAAAAAAAAAAAAAAAAAAAAAAAAAAAAAAAAAAAAAAAAAAAAAAAAAAAAAAAAAAAAAAAAAAAAAAAAAAAAAAAAAAAAAAAAAAAAAAAAAAAAAAAAAAAAAAAAAAAAAAAAAAAAAAAAAAAAAAAAAAAAAAAAAAAAAAAAAAAAAAAAAAAAAAAAAAAAAAAAAAAAAAAAAAAAAAAAAAAAAAAAAAAAAAAAAAAAAAAAAAAAAAAAAAAAAAAAAAAAAAAAAAAAAAAAAAAAAAAAAAAAAAAAAAAAAAAAAAAAAAAAAAAAAAAAAAAAAAAAAAAAAAAAAAAAAAAAAAAAAAAAAAAAAAAAAAAAAAAAAAAAAAAAAAAAAAAAAAAAAAAAAAAAAAAAAAAAAAAAAAAAAAAAAAAAAAAAAAAAAAAAAAAAAAAAAAAAAAAAAAAAAAAAAAAAAAAAAAAAAAAAAAAAAAAAAAAAAAAAAAAAAAAAAAAAAAAAAAAAAAAAAAAAAAAAAAAAAAAAAAAAAAAAAAAAAAAAAAAAAAAAAAAAAAAAAAAAAAAAAAAAAAAAAAAAAAAAAAAAAAAAAAAAAAAAAAAAAAAAAAAAAAAAAAAAAAAAAAAAAAAAAAAAAAAAAAAAAAAAAAAAAAAAAAAAAAAAAAAAAAAAAAAAAAAAAAAAAAAAAAAAAAAAAAAAAAAAAAAAAAAAAAAAAAAAAAAAAAAAAAAAAAAAAAAAAAAAAAAAAAAAAAAAAAAAAAAAAAAAAAAAAAAAAAAAAAAAAAAAAAAAAAAAAAAAAAAAAAAAAAAAAAAAAAAAAAAAAAAAAAAAAAAAAAAAAAAAAAAAAAAAAAAAAAAAAAAAAAAAAAAAAAAAAAAAAAAAAAAAAAAAAAAAAAAAAAAAAAAAAAAAAAAAAAAAAAAAAAAAAAAAAAAAAAAAAAAAAAAAAAAAAAAAAAAAAAAAAAAAAAAAAAAAAAAAAAAAAAAAAAAAAAAAAAAAAAAAAAAAAAAAAAAAAAAAAAAAAAAAAAAAAAAAAAAAAAAAAAAAAAAAAAAAAAAAAAAAAAAAAAAAAAAAAAAAAAAAAAAAAAAAAAAAAAAAAAAAAAAAAAAAAAAAAAAAAAAAAAAAAAAAAAAAAAAAAAAAAAAAAAAAAAAAAAAAAAAAAAAAAAAAAAAAAAAAAAAAAAAAAAAAAAAAAAAAAAAAAAAAAAAAAAAAAAAAAAAAAAAAAAAAAAAAAAAAAAAAAAAAAAAAAAAAAAAAAAAAAAAAAAAAAAAAAAAAAAAAAAAAAAAAAAAAAAAAAAAAAAAAAAAAAAAAAAAAAAAAAAAAAAAAAAAAAAAAAAAAAAAAAAAAAAAAAAAAAAAAAAAAAAAAAAAAAAAAAAAAAAAAAAAAAAAAAAAAAAAAAAAAAAAAAAAAAAAAAAAAAAAAAAAAAAAAAAAAAAAAAAAAAAAAAAAAAAAAAAAAAAAAAAAAAAAAAAAAAAAAAAAAAAAAAAAAAAAAAAAAAAAAAAAAAAAAAAAAAAAAAAAAAAAAAAAAAAAAAAAAAAAAAAAAAAAAAAAAAAAAAAAAAAAAAAAAAAAAAAAAAAAAAAAAAAAAAAAAAAAAAAAAAAAAAAAAAAAAAAAAAAAAAAAAAAAAAAAAAAAAAAAAAAAAAAAAAAAAAAAAAAAAAAAAAAAAAAAAAAAAAAAAAAAAAAAAAAAAAAAAAAAAAAAAAAAAAAAAAAAAAAAAAAAAAAAAAAAAAAAAAAAAAAAAAAAAAAAAAAAAAAAAAAAAAAAAAAAAAAAAAAAAAAAAAAAAAAAAAAAAAAAAAAAAAAAAAAAAAAAAAAAAAAAAAAAAAAAAAAAAAAAAAAAAAAAAAAAAAAAAAAAAAAAAAAAAAAAAAAAAAAAAAAAAAAAAAAAAAAAAAAAAAAAAAAAAAAAAAAAAAAAAAAAAAAAAAAAAAAAAAAAAAAAAAAAAAAAAAAAAAAAAAAAAAAAAAAAAAAAAAAAAAAAAAAAAAAAAAAAAAAAAAAAAAAAAAAAAAAAAAAAAAAAAAAAAAAAAAAAAAAAAAAAAAAAAAAAAAAAAAAAAAAAAAAAAAAAAAAAAAAAAAAAAAAAAAAAAAAAAAAAAAAAAAAAAAAAAAAAAAAAAAAAAAAAAAAAAAAAAAAAAAAAAAAAAAAAAAAAAAAAAAAAAAAAAAAAAAAAAAAAAAAAAAAAAAAAAAAAAAAAAAAAAAAAAAAAAAAAAAAAAAAAAAAAAAAAAAAAAAAAAAAAAAAAAAAAAAAAAAAAAAAAAAAAAAAAAAAAAAAAAAAAAAAAAAAAAAAAAAAAAAAAAAAAAAAAAAAAAAAAAAAAAAAAAAAAAAAAAAAAAAAAAAAAAAAAAAAAAAAAAAAAAAAAAAAAAAAAAAAAAAAAAAAAAAAAAAAAAAAAAAAAAAAAAAAAAAAAAAAAAAAAAAAAAAAAAAAAAAAAAAAAAAAAAAAAAAAAAAAAAAAAAAAAAAAAAAAAAAAAAAAAAAAAAAAAAAAAAAAAAAAAAAAAAAAAAAAAAAAAAAAAAAAAAAAAAAAAAAAAAAAAAAAAAAAAAAAAAAAAAAAAAAAAAAAAAAAAAAAAAAAAAAAAAAAAAAAAAAAAAAAAAAAAAAAAAAAAAAAAAAAAAAAAAAAAAAAAAAAAAAAAAAAAAAAAAAAAAAAAAAAAAAAAAAAAAAAAAAAAAAAAAAAAAAAAAAAAAAAAAAAAAAAAAAAAAAAAAAAAAAAAAAAAAAAAAAAAAAAAAAAAAAAAAAAAAAAAAAAAAAAAAAAAAAAAAAAAAAAAAAAAAAAAAAAAAAAAAAAAAAAAAAAAAAAAAAAAAAAAAAAAAAAAAAAAAAAAAAAAAAAAAAAAAAAAAAAAAAAAAAAAAAAAAAAAAAAAAAAAAAAAAAAAAAAAAAAAAAAAAAAAAAAAAAAAAAAAAAAAAAAAAAAAAAAAAAAAAAAAAAAAAAAAAAAAAAAAAAAAAAAAAAAAAAAAAAAAAAAAAAAAAAAAAAAAAAAAAAAAAAAAAAAAAAAAAAAAAAAAAAAAAAAAAAAAAAAAAAAAAAAAAAAAAAAAAAAAAAAAAAAAAAAAAAAAAAAAAAAAAAAAAAAAAAAAAAAAAAAAAAAAAAAAAAAAAAAAAAAAAAAAAAAAAAAAAAAAAAAAAAAAAAAAAAAAAAAAAAAAAAAAAAAAAAAAAAAAAAAAAAAAAAAAAAAAAAAAAAAAAAAAAAAAAAAAAAAAAAAAAAAAAAAAAAAAAAAAAAAAAAAAAAAAAAAAAAAAAAAAAAAAAAAAAAAAAAAAAAAAAAAAAAAAAAAAAAAAAAAAAAAAAAAAAAAAAAAAAAAAAAAAAAAAAAAAAAAAAAAAAAAAAAAAAAAAAAAAAAAAAAAAAAAAAAAAAAAAAAAAAAAAAAAAAAAAAAAAAAAAAAAAAAAAAAAAAAAAAAAAAAAAAAAAAAAAAAAAAAAAAAAAAAAAAAAAAAAAAAAAAAAAAAAAAAAAAAAAAAAAAAAAAAAAAAAAAAAAAAAAAAAAAAAAAAAAAAAAAAAAAAAAAAAAAAAAAAAAAAAAAAAAAAAAAAAAAAAAAAAAAAAAAAAAAAAAAAAAAAAAAAAAAAAAAAAAAAAAAAAAAAAAAAAAAAAAAAAAAAAAAAAAAAAAAAAAAAAAAAAAAAAAAAAAAAAAAAAAAAAAAAAAAAAAAAAAAAAAAAAAAAAAAAAAAAAAAAAAAAAAAAAAAAAAAAAAAAAAAAAAAAAAAAAAAAAAAAAAAAAAAAAAAAAAAAAAAAAAAAAAAAAAAAAAAAAAAAAAAAAAAAAAAAAAAAAAAAAAAAAAAAAAAAAAAAAAAAAAAAAAAAAAAAAAAAAAAAAAAAAAAAAAAAAAAAAAAAAAAAAAAAAAAAAAAAAAAAAAAAAAAAAAAAAAAAAAAAAAAAAAAAAAAAAAAAAAAAAAAAAAAAAAAAAAAAAAAAAAAAAAAPZYQCZ2zEYJDqbaRtf/l33R5Iwx4sunF8xf/V+ZaSFRnTRpCPAtOHh3dBX4JKnHbPBx/0ybfYiMYpKWRRZdWOXJTwY=</c2pa:manifest></metadata><path fill="#24211D" d="M955 48l-37 2-20 4-23 7-12 6-20 14-13 13-14 21-7 14-10 31-22 98-2 7-2 2-18-1-11-11-2-4-4-3-22-17-31-16-23-10-41-14-11-3-23 0-6-5-4-1-16-3-19-1-3-1-50 0-30 3-28 6-8 5-19 0-60 20-40 19-43 26-14 14-9 1-9 7-35 27-44 43-21 26-1 8-11 11-5 2-29 43-17 33-10 22-7 21-1 12-9 10-16 84-4 36 2 6 0 17-3 3 0 3 3 29 7 40 5 18 6 17 7 8 0 13 12 25 16 24 20 25 32 34 10 9 33 25 10-6 11-3 36-4 335 1 3 2 1 3-8 36 0 2 2 2 267 0 3-1 54 0 3 1 6-1 11 0 3 1 179 0 3-1 6 1 51 0 3-1 37 0 3 1 52 0 3-2 3-5 8-16 5-13 9-27 11-51 2-5 56 0 22-3 13-3 22-8 12-7 20-14 9-9 1 0 1 2-2 7 0 5 1 3 5 8 6 4 4 2 22 3 95-1 3-1 8 0 20-5 7 3 14 4 57 0 20-3 29-10 22-12 4 2 3 6 11 14 5 2 7 1 29 1 3 1 79 0 16-2 17-4 17 6 48 1 31-4 16-4 17-7 16-8 17-12 18-19 2 1-7 32 2 7 5 7 5 3 9 4 208 2 27-3 32-10 11-6 11-8 9-8 15-17 3-2 311 0 2-2 12-54-2-1-26-1 0-3 3-12-2-2-269 0-1-3 2-7 2-1 293 1 2-2 12-55-2-1-21-1 0-3 3-14 2-8 1-1 19 0 3-3 17-53-2-1-292 0-2-1-1-3 1-6 4-16 2-1 292-1 3-6 9-48-3-2-18 0-1-2 0-2 5-22 18 0 2-2 15-55-2-1-169 0-3 1-100-1-7-3-3-6 2-1 260 0 2-2 3-12 1-2 15 0 3-3 18-55-1-1-286 0-2-2 6-24 1-12-2-5-3-6-4-3-8-2-8 0-3-1-86 0-3-1-123 0-9 1-15 3-13 4-21 8-19 13-12 12-6 8-1-2 5-17 1-11-4-10-9-8-31 0-3-1-51 0 11-36 2-13 0-12-4-8-7-6-15-2-51 1-16 3-23-4-53 1-20 6-7 5-4 4-9 17-6 19-8 36-3 4-17 11-20 19-1-2 4-20-1-12-7-7-8-2-122-1-3-1-77 0-3 1-25 1-15 3-16 5-16 7-19 13-12 12-1-1 0-2 2-7 0-5-3-8-6-5-10-2-28 0-3-1-76 0-3 1-11 0-27 4-7-4-10-2-40 0-39 4-19 6-18 9-11 8-15 17-14 24-10 28-14 56-12 60-44 187-10 52-8 25-4 4-18-1-10-3-2-3 1-11 23-99 113-526 7-40 1-14-6-6-5-4-18-2-199-2-19-2z"></path><path fill="#E81B21" d="M488 177l-34 4-23 5-8 5-19 0-60 20-40 19-30 17-13 9-14 14-8 1-2 1-43 33-44 43-21 26-1 8-11 11-5 2-29 43-17 33-10 22-7 21-1 12-9 11-12 59-5 32-1 9 0 77 6 36 10 35 3 5 6 7 0 13 12 25 16 24 20 25 32 34 10 9 33 25 10-6 11-3 36-4 335 1 4 1 42-181 5-4 21 0 15-5 12-10 8-14 8-21 4-14 58-261 21-99 15-64-2-1-17-1-11-11-2-4-10-8-16-12-15-8-39-18-41-14-11-3-23 0-6-5-4-1-25-4-10 0-3-1zM2558 327l-1 3-15 59 0 7 1 4 1 2 261 0 3-3 15-71-2-1zM619 351l8 0 5 4 1 8-3 7-24 39-164 241-8 7-57 1-3 1-19 0-2-1-3-5 0-9 14-17 216-239 23-23zM2525 462l-8 23-8 18-7 14-9 14 0 2 6 4 277 0 2-2 15-72-1-1zM2493 597l-1 3-16 68-1 2 2 2 269 0 2-2 2-8 14-64-2-1zM2462 732l-14 42-5 13-9 17 1 3 281 0 3-5 15-68-2-2z"></path><path fill="#FFFFFF" d="M933 80l-22 4-20 6-18 10-14 12-12 17-8 16-10 32-12 49-17 81-69 307-11 56-10 39-16 43-5 8-15 15-7 4-13 6-10 2-7 0-3 2-44 193 1 3 88-1 2-7 6-6 13-10 13-16 14-31 16-56 10-9 133 1 3 1 47 0 2 1 6 6 1 12-26 110-1 3 1 2 97 0 2-2 0-5 7-7 10-15 12-24 13-38 24-104-2-1-10-3-9-5-14-15-2-7 0-25 140-650-2-1-34 0-3-1-78 0-3-1-77 0-3-1zM981 141l21 0 3 1 23 0 3 1 13 0 7 7 1 15-135 606-3 9-9 9-80-1-8-8 0-12 13-16 7-12 7-15 6-17 121-550 2-9zM2095 226l-14 1-14 2-5 3-17 19-4 2-14 0-6-1-4-2-8-9 0-13-2-1-19 0-9 3-3 3-4 6-5 18 2 2 8 0 3 1 75 0 13-2 10-4 9-6 4-7 5-13 0-1zM1691 302l-25 1-26 4-29 11-13 10-9 11-8 14-10 26-7 29-12 55 2 2 14 0 14-2 24-7 14-7 14-12 10-14 7-15 12-37 5-9 10-10 6-4 5-1 20 0 9 3 9 9 3 7 0 20-10 39-7 40-9 29-11 13-16 9-69 28-40 19-26 18-8 9-8 12-4 9-14 46-33 146-1 6 1 2 67 0 13-2 14-3 10-4 32-16 11 0 7 6 1 2-1 16 1 2 19 0 25-3 22-7 11-5 9-6 6-6 9-14 5-10 14-50 17-88 49-220 20-98-2-1-116 0-13-2zM2341 302l-19 2-14 3-28 11-19 16-9 13-5 11-10 34-15 60-63 274-19 74-2 9 0 4 12 1 3 1 111 1 3 1 34 0 3-1 14 0 16-2 15-5 14-6 18-13 9-13 12-23 9-25 5-20 32-145-1-1-20 0-3-1-48 0-9-1-4-2-6-7 0-12 6-7 4-3 34-4 13-4 17-7 10-6 9-8 11-16 9-18 11-33 29-129-1-2-2 0-80 0-3-1zM2154 303l-10 1-20 4-14 4-15 7-14 10-11 15-7 13-7 21-10 38-13 60-60 257-8 22-11 11-9 4-21 0-8-3-13-14 0-20 97-428-1-1-20 1-16 3-14 4-13 6-15 10-7 9-13 23-11 37-81 358-14 55 1 2 53 2 3-1 15 0 14-2 24-7 27-14 11 0 7 6 1 2-1 14 1 1 13 1 27-3 23-6 24-11 13-9 9-10 11-21 9-23 45-188 55-239-2-1zM1343 312l-16 2-17 4-10 3-20 12-5 4-4 5-11 16-6 13-22 84-24 112-96 414 0 2 1 2 59-1 2-2 0-4 6-6 2-1 6 0 2-2 8-11 13-25 12-39 15-63 2-4 5-5 2-1 66 0 10-1 23-4 20-7 21-12 10-10 11-17 8-17 16-62 81-377-2-1-56 0-3 1-23 1-19 4-19 8-16 9-10 0-9-9-1-14-4-1zM2350 347l29 0 5 3 11 10 3 6 0 27-1 9-17 71-7 18-4 8-5 7-10 10-9 6-9 3-22 0-4-2-7-9 0-13 2-15 7-26 20-91 5-13 5-5zM1363 357l20 0 4 1 5 2 11 10 2 4 0 26-1 5-43 187-27 125-9 34-5 10-11 11-7 4-25 1-6-3-11-12-2-4 1-25 9-45 58-248 10-49 4-13 5-7 9-9 5-4zM1663 552l13 0 2 1 7 7 1 12-18 90-20 83-2 4-3 5-9 9-6 3-9 2-15 0-4-1-5-2-14-16 0-15 14-70 13-54 5-18 6-9 17-17 11-8zM2297 570l17 0 10 1 8 4 12 12 1 6 0 23-14 60-5 30-11 36-6 10-11 11-7 4-16 4-18 0-12-12 0-14 1-7 35-151 3-7 7-7z"></path></svg>